PathFileType	4	(X/Y/Z)	Run_200 02
DataRate	CameraRate	NumFrames	NumMarkers	Units	OrigDataRate	OrigDataStartFrame	OrigNumFrames
100	100	7	42	mm	100	206	128
Frame#	Time	LPSI			RPSI			RTH1			RTH2			RTH3			LTH1			LTH2			LTH3			RTB1			RTB2			RTB3			LTB1			LTB2			LTB3			RCAL			RTOE			RMT5			LCAL			LTOE			LMT5			LACR			RACR			CLAV			C7			RUA1			RUA2			RUA3			RLEL			RMEL			LUA1			LUA2			LUA3			LLEL			LMEL			RFAsuperior			RFAradius			RFAulna			LFAsuperior			LFAradius			LFAulna			RASI			LASI			
		X1	Y1	Z1	X2	Y2	Z2	X3	Y3	Z3	X4	Y4	Z4	X5	Y5	Z5	X6	Y6	Z6	X7	Y7	Z7	X8	Y8	Z8	X9	Y9	Z9	X10	Y10	Z10	X11	Y11	Z11	X12	Y12	Z12	X13	Y13	Z13	X14	Y14	Z14	X15	Y15	Z15	X16	Y16	Z16	X17	Y17	Z17	X18	Y18	Z18	X19	Y19	Z19	X20	Y20	Z20	X21	Y21	Z21	X22	Y22	Z22	X23	Y23	Z23	X24	Y24	Z24	X25	Y25	Z25	X26	Y26	Z26	X27	Y27	Z27	X28	Y28	Z28	X29	Y29	Z29	X30	Y30	Z30	X31	Y31	Z31	X32	Y32	Z32	X33	Y33	Z33	X34	Y34	Z34	X35	Y35	Z35	X36	Y36	Z36	X37	Y37	Z37	X38	Y38	Z38	X39	Y39	Z39	X40	Y40	Z40	X41	Y41	Z41	X42	Y42	Z42	

189	2.69	605.8510199999999	1062.677345	-525.457974	611.329873	1053.807141	-441.775487	754.1410990000001	848.935743	-306.120219	814.57635	715.835165	-319.608971	744.376026	607.750003	-323.646115	738.306924	884.730676	-680.189292	828.467251	782.165209	-662.591989	778.770881	634.734115	-653.209123	680.412423	387.832921	-370.479745	570.3767309999999	380.167593	-322.540083	501.451625	303.34496	-379.686254	836.953871	407.187731	-585.886151	766.1808109999999	341.520386	-653.965367	766.1083599999999	212.461948	-573.134421	327.477384	348.190168	-408.43275	425.424271	137.308045	-381.041797	378.264047	157.322257	-299.644275	601.70252	92.314353	-553.473666	837.710765	70.422512	-569.641249	798.397775	45.556199	-650.166975	750.343244	1512.434636	-667.367461	734.0032629999999	1502.797231	-325.415169	825.033014	1467.853125	-468.146995	683.999917	1541.11582	-511.710357	675.431913	1391.323871	-246.371539	595.451682	1324.487066	-269.626131	632.879252	1281.402611	-216.232173	617.49555	1186.583762	-196.49093	577.774357	1173.17578	-268.424997	690.9251870000001	1431.942734	-772.709369	611.805959	1370.687625	-775.14197	653.001771	1339.181245	-838.937951	637.292094	1260.907005	-883.036595	572.547446	1239.139724	-842.5609930000001	682.838675	1140.692731	-218.880801	859.654284	1146.2717	-327.958756	833.039028	1079.901531	-319.46694	713.060568	1187.170834	-815.299146	799.951611	1179.811775	-682.894134	768.4265820000001	1121.822277	-698.081663	801.984521	985.535896	-368.195497	791.17744	997.503103	-618.888545	
190	2.7	604.813909	1059.952382	-525.899916	608.634242	1050.089312	-442.048118	754.895761	844.543197	-306.420083	820.021313	713.849733	-319.10285	754.259437	604.111596	-323.305569	734.909807	881.208104	-680.603691	824.816024	778.398409	-662.410934	774.295331	630.629509	-654.093735	694.081791	385.747735	-371.197871	583.81719	378.676605	-323.501123	514.549065	302.593662	-381.220182	827.768929	401.500602	-585.6045370000001	754.723042	338.520409	-654.00351	750.396422	209.663064	-572.127075	339.41418	347.051623	-410.16853	440.712582	137.962989	-381.882856	394.193551	158.139101	-300.070131	582.287433	93.569103	-551.878828	817.98635	69.65006700000001	-569.589671	778.262598	45.773392	-650.39194	751.019707	1504.866764	-670.324149	731.511698	1497.845955	-327.365819	823.817855	1462.072679	-469.155271	683.267666	1536.292274	-514.806588	670.930423	1387.390302	-248.610711	590.654195	1321.163975	-273.696722	626.262082	1277.954351	-219.167656	609.808939	1183.41541	-198.926224	570.679395	1169.863585	-270.895686	694.828304	1421.044902	-774.784998	617.764665	1356.244106	-778.46754	661.784996	1326.165372	-840.926203	650.438436	1246.93908	-884.076785	585.276936	1223.496406	-844.737169	674.4264879999999	1135.596202	-219.599885	852.009939	1132.386664	-326.356342	822.702541	1066.854831	-317.218571	726.524775	1175.958175	-813.694588	809.787929	1171.423003	-679.547424	780.029595	1113.324664	-695.19883	799.976105	979.025928	-367.377861	789.180934	990.383056	-618.296973	
191	2.71	603.1043079999999	1057.4585	-526.1326780000001	605.880945	1047.714917	-442.245469	753.81612	841.185561	-306.410396	825.0328919999999	713.201815	-318.699519	763.925623	602.001558	-322.936641	731.58979	878.586351	-680.834777	821.13467	775.9548129999999	-661.805171	769.250223	627.478802	-655.533018	708.1920730000001	384.690814	-371.775529	597.785737	377.517805	-324.344675	528.761874	301.431323	-382.475668	817.5872440000001	396.752843	-586.149276	742.298056	336.218251	-654.586778	733.919835	207.725781	-571.652047	352.213695	344.379994	-411.36027	458.027442	137.730953	-383.053755	412.079806	157.347244	-300.771102	562.779839	95.32483000000001	-551.649057	798.083715	69.22944699999999	-569.85748	758.178847	45.838283	-650.889943	752.179829	1498.628789	-672.717809	729.374267	1494.276772	-329.15814	822.565873	1457.60897	-470.223728	683.000545	1532.916108	-517.366166	666.6058420000001	1385.069017	-250.432809	585.958177	1319.642501	-277.570943	619.501253	1276.491387	-221.847473	601.959526	1182.567613	-200.827513	563.20683	1168.689162	-272.813516	698.701869	1412.171279	-775.958661	624.577808	1344.090975	-780.478939	670.400997	1315.269114	-841.933656	664.022062	1235.108792	-884.237553	598.427295	1209.970368	-846.035113	665.942003	1133.206743	-219.895722	843.508251	1120.787203	-325.028958	811.54918	1056.319922	-315.079002	740.628276	1166.923287	-811.278777	819.699777	1164.585962	-675.1725750000001	791.989273	1106.511964	-691.7498409999999	797.530662	973.611337	-366.15108	787.1809050000001	984.446996	-617.262369	
192	2.72	600.453626	1055.50188	-526.047344	602.765494	1046.635626	-442.255123	750.829531	839.035562	-306.566674	829.506062	714.124737	-318.362955	773.168127	601.55007	-322.622433	728.2278229999999	876.8804270000001	-681.126319	816.998549	773.894278	-661.874221	763.116346	625.109323	-657.14207	722.4178900000001	384.767249	-372.057154	612.09142	376.646519	-325.107999	543.9645389999999	299.83716	-383.402571	806.733054	393.24104	-587.4664299999999	729.629994	334.557597	-655.5832360000001	717.103965	206.817369	-571.729282	365.814529	340.060655	-412.11942	477.277416	136.494627	-384.394227	431.511621	154.83064	-301.877074	543.464517	97.896073	-552.3447169999999	778.308995	68.93416499999999	-570.481881	738.204667	45.657231	-651.534608	753.693834	1493.888853	-674.447254	727.507823	1492.197248	-330.703844	821.491547	1454.336257	-471.013397	682.955244	1530.7188	-519.347755	662.286222	1384.404921	-251.964519	581.31729	1320.01005	-280.865853	612.720822	1277.091649	-224.000066	593.713985	1183.972634	-202.020228	555.203979	1169.966332	-274.075176	703.028814	1405.055349	-776.6982369999999	632.111974	1334.130461	-781.150032	678.919084	1306.54355	-842.132934	677.575168	1225.72507	-883.76617	611.553723	1198.890034	-846.69811	656.743923	1132.861142	-219.755541	834.291482	1112.35478	-323.813823	799.888658	1049.118261	-313.226215	754.704021	1160.21979	-808.168316	829.425521	1160.034373	-669.879867	804.161287	1101.744496	-687.77302	794.650131	969.850582	-365.395416	785.0569400000001	980.202171	-616.6509600000001	
193	2.73	597.314041	1054.655151	-525.806288	599.2158020000001	1046.887668	-442.117787	746.831609	838.182981	-307.029135	833.326908	716.694158	-317.985999	781.75479	602.929481	-322.39223	724.823524	876.103938	-681.539094	812.140727	771.793404	-662.770756	755.8088	623.470333	-658.635859	736.47848	386.004928	-372.048979	626.5287070000001	375.938558	-325.820525	559.951057	297.887188	-384.176913	795.434311	391.005399	-589.619462	716.664344	333.806547	-656.894234	700.286697	206.97337	-572.393224	380.066455	333.963383	-412.593434	498.351538	134.223105	-385.869198	452.392142	150.63894	-303.447286	524.379374	101.287972	-553.297634	758.615106	68.674122	-571.313983	718.213401	45.349382	-652.169997	755.494314	1490.673144	-675.548984	725.82003	1491.680009	-331.989136	820.631543	1452.333885	-471.380502	682.8819140000001	1529.555932	-520.939021	657.899288	1385.636242	-253.220239	576.700532	1322.493549	-283.488532	605.9336029999999	1279.859745	-225.423563	584.923671	1187.369072	-202.506896	546.735757	1173.740158	-274.798067	708.327989	1399.563418	-777.273118	639.840579	1326.059127	-780.861733	687.63725	1299.909751	-841.8214	690.72708	1218.739943	-882.8806980000001	624.315695	1190.222571	-846.955368	646.444917	1134.021543	-219.299258	824.571435	1107.772902	-322.197333	788.079628	1045.744539	-311.615524	768.190759	1155.781842	-804.635038	838.941158	1158.348704	-664.199464	816.382298	1099.28932	-683.346408	791.459388	968.204624	-365.384807	782.708795	978.069213	-616.7624970000001	
194	2.74	594.319116	1055.002512	-525.6719859999999	595.521796	1048.279589	-442.033587	743.31188	838.703349	-307.346873	836.470464	720.767992	-317.480202	789.456264	606.123947	-322.269716	721.376062	876.196722	-681.975721	806.544264	769.872594	-663.996231	747.508636	622.63427	-659.883548	750.244193	388.329899	-372.006549	640.87228	375.323036	-326.479766	576.456516	295.663142	-385.000324	783.68758	389.981354	-592.532452	702.934831	334.252517	-658.398398	683.691751	208.117046	-573.648518	394.821251	325.996654	-412.921106	521.139194	130.98171	-387.546928	474.800988	145.039914	-305.304755	505.477457	105.263331	-554.107149	738.853593	68.462279	-572.137423	698.1112460000001	45.06549	-652.645996	757.599285	1488.948845	-676.128872	724.196493	1492.730654	-332.969242	819.877433	1451.819331	-471.340715	682.71944	1529.475783	-522.26351	653.482366	1388.914224	-254.082318	572.024643	1327.132222	-285.56508	599.059203	1284.803278	-226.073034	575.677613	1192.598641	-202.362196	538.057295	1179.785154	-275.119877	714.682221	1395.825828	-777.661468	647.287407	1319.941445	-780.350194	696.750369	1295.280835	-841.250199	703.28481	1213.933589	-881.680212	636.503053	1183.737051	-846.915069	635.366388	1136.842315	-218.632592	814.602602	1107.160799	-319.750422	776.4300950000001	1046.155792	-310.029079	780.832756	1153.561794	-800.928126	848.204007	1159.821317	-658.696597	828.468589	1099.331178	-678.575032	788.17679	968.806161	-365.518156	780.214005	978.172476	-617.024683	
195	2.75	591.887927	1056.162874	-525.734026	592.262173	1050.414808	-442.140713	741.370008	840.742429	-307.067344	839.045709	726.098466	-316.839454	796.090402	610.859602	-322.296135	717.797851	877.05629	-682.2569999999999	800.281358	768.5184389999999	-665.096212	738.30684	622.708772	-660.753141	763.715287	391.591339	-372.315571	654.9579629999999	374.775847	-327.089525	593.274272	293.179386	-385.892901	771.130449	389.995445	-595.508198	688.153576	335.780709	-659.756436	667.407427	210.108723	-575.395543	410.033064	316.163536	-413.221992	545.5346960000001	127.02123	-389.429056	498.757773	138.501455	-307.034027	486.760816	109.5961	-554.68368	718.9952469999999	68.309152	-572.801422	677.926647	44.910726	-652.913288	760.010744	1488.75249	-676.312741	722.517951	1495.276566	-333.565213	819.109818	1452.914968	-470.907957	682.591627	1530.639067	-523.266273	649.0765740000001	1394.102901	-254.465242	567.2093159999999	1333.631893	-287.173849	592.09405	1291.738557	-226.039859	566.295543	1199.680326	-201.633813	529.411122	1187.707538	-274.993959	721.633103	1394.044374	-777.75177	654.382835	1316.259137	-780.463516	706.1764030000001	1292.587487	-840.489112	715.184664	1211.131347	-880.184117	647.972713	1179.235201	-846.5732850000001	624.3881730000001	1141.929506	-217.702794	804.662874	1110.037931	-316.469078	765.18714	1049.826094	-308.271234	792.6582	1153.662401	-797.1548780000001	856.906468	1164.408603	-653.559349	840.222479	1101.965482	-673.569522	785.00451	971.4636829999999	-364.975378	777.774285	980.329421	-616.62303	
